<svg width="20" height="20" viewBox="0 0 20 20" fill="none" xmlns="http://www.w3.org/2000/svg">
<path d="M12 7C12.2761 7 12.4999 7.22394 12.5 7.5C12.5 7.77614 12.2761 8 12 8H9.24805L9.05859 9.74023C9.1367 9.73932 9.2198 9.73775 9.30469 9.7373C9.72449 9.73511 10.2541 9.74019 10.5254 9.77832C12.0975 9.99951 13.1926 11.4532 12.9717 13.0254C12.7506 14.5976 11.2969 15.6926 9.72461 15.4717C8.75136 15.3348 7.96091 14.7255 7.55273 13.9102C7.42918 13.6632 7.52946 13.3629 7.77637 13.2393C8.02327 13.1158 8.32368 13.216 8.44727 13.4629C8.71464 13.9967 9.23033 14.3924 9.86426 14.4814C10.8896 14.6254 11.8373 13.9111 11.9814 12.8857C12.1255 11.8604 11.4111 10.9127 10.3857 10.7686C10.2017 10.7427 9.75352 10.735 9.30957 10.7373C9.09662 10.7384 8.89716 10.7423 8.75098 10.7451C8.67802 10.7465 8.61837 10.7471 8.57715 10.748L8.53027 10.75H8.51367C8.36935 10.754 8.2307 10.695 8.13281 10.5889C8.03499 10.4828 7.98738 10.3398 8.00293 10.1963L8.30273 7.44629C8.3304 7.1927 8.54473 7.00009 8.7998 7H12Z" fill="black"/>
<path fill-rule="evenodd" clip-rule="evenodd" d="M13.7559 2.0127C15.0164 2.14082 16 3.20566 16 4.5V15.5C16 16.8807 14.8807 18 13.5 18H6.5C5.11929 18 4 16.8807 4 15.5V4.5C4 3.11929 5.11929 2 6.5 2H13.5L13.7559 2.0127ZM6.5 3C5.67157 3 5 3.67157 5 4.5V15.5C5 16.3284 5.67157 17 6.5 17H13.5C14.3284 17 15 16.3284 15 15.5V4.5C15 3.67157 14.3284 3 13.5 3H12.8369C12.4546 4.15802 11.4097 5 10 5C9.13757 5 8.24072 4.71025 7.56543 3.95996C7.32396 3.69166 7.12023 3.37196 6.95605 3H6.5ZM8.27148 3C8.61688 3.59728 9.26022 4 10 4C10.8124 4 11.4337 3.60128 11.7549 3H8.27148Z" fill="black"/>
</svg>
