<svg width="20" height="20" viewBox="0 0 20 20" fill="none" xmlns="http://www.w3.org/2000/svg">
<path d="M11 7C13.4646 7 14.8627 8.5736 15.066 10.474L15.1282 10.474C16.7143 10.474 18 11.711 18 13.237C18 14.763 16.7143 16 15.1282 16H6.8718C5.28575 16 4.00001 14.763 4.00001 13.237C4.00001 11.711 5.28575 10.474 6.87182 10.474L6.934 10.474C7.13852 8.56111 8.53544 7 11 7ZM11 8C9.35057 8 7.9129 9.27029 7.9129 11.0249C7.9129 11.303 7.65892 11.5211 7.36809 11.5211L6.81819 11.5211C5.81403 11.5211 5.00001 12.2999 5.00001 13.2605C5.00001 14.2212 5.81403 15 6.81819 15H15.1818C16.186 15 17 14.2212 17 13.2605C17 12.2999 16.186 11.5211 15.1818 11.5211L14.6319 11.5211C14.3411 11.5211 14.0871 11.303 14.0871 11.0249C14.0871 9.24779 12.6494 8 11 8ZM3.80323 9.70081C3.88315 9.9329 3.78237 10.1835 3.57561 10.2995L3.49326 10.3364L2.69185 10.6123C2.43075 10.7022 2.14621 10.5634 2.05631 10.3023C1.97639 10.0702 2.07717 9.81963 2.28393 9.70366L2.36628 9.66678L3.16769 9.39083C3.42879 9.30093 3.71333 9.43971 3.80323 9.70081ZM8.91929 5.50023C9.25181 5.66241 9.54462 5.87337 9.79331 6.12029C9.38698 6.20342 9.00724 6.33003 8.65692 6.4951C8.60128 6.46105 8.54207 6.42885 8.48091 6.39902C7.34909 5.84699 5.98405 6.31701 5.43202 7.44884C5.04721 8.23783 5.15904 9.14013 5.6455 9.80137C5.31553 9.89962 5.00518 10.0425 4.72106 10.2221C4.124 9.29064 4.01237 8.07839 4.53323 7.01047C5.32736 5.38225 7.29107 4.70609 8.91929 5.50023ZM2.91582 5.66976L3.00013 5.70192L3.76194 6.07348C4.01013 6.19453 4.1132 6.49387 3.99215 6.74206C3.88455 6.96268 3.63608 7.06863 3.40788 7.00443L3.32357 6.97227L2.56176 6.60072C2.31357 6.47966 2.2105 6.18033 2.33155 5.93214C2.43915 5.71152 2.68762 5.60557 2.91582 5.66976ZM9.98918 3.2954C10.2098 3.403 10.3157 3.65147 10.2515 3.87967L10.2194 3.96398L9.84783 4.72579C9.72678 4.97398 9.42745 5.07705 9.17925 4.956C8.95863 4.8484 8.85268 4.59993 8.91688 4.37173L8.94904 4.28742L9.3206 3.52561C9.44165 3.27742 9.74098 3.17435 9.98918 3.2954ZM6.19931 3.26298L6.23619 3.34533L6.51213 4.14674C6.60204 4.40784 6.46326 4.69238 6.20216 4.78228C5.97007 4.8622 5.71946 4.76142 5.60349 4.55466L5.56662 4.47231L5.29067 3.6709C5.20077 3.4098 5.33955 3.12526 5.60064 3.03536C5.83273 2.95544 6.08334 3.05622 6.19931 3.26298Z" fill="black"/>
</svg>
